<?xml version="1.0" encoding="UTF-8"?>
<svg version="1.1" xmlns="http://www.w3.org/2000/svg" width="512" height="512">
<path d="M0 0 C0.79792969 0.71414062 1.59585937 1.42828125 2.41796875 2.1640625 C27.89647111 26.20388804 41.66862525 60.08612766 43.16015625 94.71875 C43.86067945 119.56496638 38.03930621 143.31459651 26 165 C25.51917969 165.8971875 25.03835938 166.794375 24.54296875 167.71875 C17.05916616 181.00411713 6.64051662 191.62835429 -4.0625 202.3125 C-4.63296051 202.8822757 -5.20342102 203.45205139 -5.79116821 204.03909302 C-7.43082324 205.67227359 -9.07529486 207.30037707 -10.72265625 208.92578125 C-11.22432312 209.42305725 -11.72598999 209.92033325 -12.24285889 210.43267822 C-16.23242246 214.34105832 -18.30953585 215.34485448 -24.02734375 215.29296875 C-26 215 -26 215 -28.4375 213.125 C-31.05072669 209.5710117 -31.42550738 207.42527679 -31 203 C-28.40776962 198.59643084 -25.38405335 195.18604042 -21.7109375 191.65625 C-20.68059161 190.65528064 -19.65082704 189.65371262 -18.62158203 188.65161133 C-18.09034729 188.13708405 -17.55911255 187.62255676 -17.01177979 187.09243774 C1.7600757 168.82913105 15.67364989 149.19821043 21 123 C21.22171875 122.09507812 21.4434375 121.19015625 21.671875 120.2578125 C27.67844239 92.2542213 20.69498772 62.13729898 6 38 C-12.03377987 10.22030505 -38.11384656 -8.02434198 -70 -16 C-70.95648438 -16.2475 -71.91296875 -16.495 -72.8984375 -16.75 C-101.68165675 -22.82739527 -132.32110879 -15.17953185 -157 0 C-160.78697174 2.50529363 -164.42307401 5.20389985 -168 8 C-161.48757054 14.0805406 -154.90901151 19.97231615 -147.96875 25.56640625 C-143.83229677 28.95720935 -139.80305291 32.46577724 -135.77392578 35.98291016 C-132.60877671 38.74447659 -129.43245091 41.48785406 -126.2109375 44.18359375 C-105.58072699 61.47507891 -105.58072699 61.47507891 -103 75 C-102.11198223 88.05822855 -103.35579666 98.61557033 -112.08984375 109 C-115.12737967 112.1804057 -118.23668236 114.72402297 -122 117 C-122.680625 117.41378906 -123.36125 117.82757813 -124.0625 118.25390625 C-133.11944929 122.76665702 -144.733343 122.35302822 -154.4375 120.2578125 C-162.36043634 117.37099793 -168.27311041 111.96046234 -174.43164062 106.39453125 C-176.8264419 104.26515627 -179.31862291 102.26163566 -181.8125 100.25 C-186.29904235 96.59892814 -190.68165963 92.84814858 -195 89 C-201.73152328 92.02111938 -206.26014602 98.22168272 -210.9921875 103.70703125 C-213.41072535 106.46905794 -215.88887734 109.17401141 -218.375 111.875 C-221.77050573 115.56539074 -225.15115183 119.26705455 -228.5 123 C-231.84885073 126.73294831 -235.22965565 130.43445845 -238.625 134.125 C-241.6022264 137.36213091 -244.55952966 140.61137856 -247.4375 143.9375 C-251.01802312 148.06755185 -254.73579762 152.0660407 -258.45019531 156.07519531 C-263.01596642 161.00645654 -267.51744662 165.99297968 -272 171 C-277.27028483 176.87802939 -282.57232185 182.72500385 -287.91357422 188.53857422 C-291.5298002 192.47792546 -295.10882405 196.44926265 -298.6796875 200.4296875 C-301.31079783 203.34428447 -303.96652475 206.23539224 -306.625 209.125 C-310.16002505 212.96862399 -313.63670939 216.85329198 -317.05078125 220.8046875 C-318.65018457 222.60601949 -320.27251005 224.37396398 -321.91796875 226.1328125 C-322.70892944 226.97984741 -322.70892944 226.97984741 -323.51586914 227.84399414 C-324.55703562 228.95593024 -325.60158196 230.06471531 -326.65014648 231.16967773 C-332.37852186 237.29044635 -337.46186628 242.96156831 -337.34765625 251.8046875 C-336.54976033 256.84308643 -333.5180426 260.72812647 -329.6875 263.9375 C-323.66518254 266.3184162 -319.16294969 266.57749797 -313.12963867 264.17285156 C-309.02068606 261.90993647 -306.14063699 258.41484929 -303.0625 254.9375 C-302.0111084 253.78459473 -302.0111084 253.78459473 -300.93847656 252.60839844 C-298.94529255 250.41746692 -296.97057088 248.21125938 -295 246 C-294.13761719 245.04738281 -293.27523437 244.09476562 -292.38671875 243.11328125 C-290.98424622 241.56210048 -289.58692343 240.00624491 -288.1953125 238.4453125 C-285.53266473 235.47944506 -282.83157959 232.55074276 -280.125 229.625 C-276.22038404 225.40381027 -272.3214607 221.17771077 -268.4375 216.9375 C-267.98777832 216.44652832 -267.53805664 215.95555664 -267.07470703 215.44970703 C-266.16937398 214.46115485 -265.26410037 213.47254823 -264.35888672 212.48388672 C-262.53212817 210.48909001 -260.70435116 208.49522812 -258.87646484 206.50146484 C-257.96130797 205.50320043 -257.04626826 204.50482861 -256.13134766 203.50634766 C-253.80450327 200.96714242 -251.47599744 198.42949397 -249.14453125 195.89453125 C-248.20044721 194.86725516 -247.25643595 193.83991217 -246.3125 192.8125 C-245.8575415 192.3177417 -245.40258301 191.8229834 -244.93383789 191.31323242 C-241.41431869 187.47624889 -237.96850409 183.57904318 -234.55859375 179.64453125 C-232.18116508 177.13601628 -231.16070906 177.00892828 -227.625 176.8125 C-222.60240964 177.07228916 -222.60240964 177.07228916 -220 179 C-217.44499562 182.44925591 -217.66948069 185.83545673 -218 190 C-219.65234375 192.7734375 -219.65234375 192.7734375 -221.9375 195.375 C-222.75863281 196.31730469 -223.57976562 197.25960937 -224.42578125 198.23046875 C-227.50512998 201.54345547 -230.66569454 204.75123103 -233.90234375 207.91015625 C-236.36161187 210.36026509 -238.60411876 212.94506849 -240.86328125 215.578125 C-243.80020749 218.90699935 -246.83846241 222.13709413 -249.875 225.375 C-254.55077623 230.36347373 -259.17711008 235.38698979 -263.734375 240.484375 C-266.42379266 243.47055599 -269.14634956 246.42469812 -271.875 249.375 C-272.38216553 249.92341553 -272.88933105 250.47183105 -273.41186523 251.03686523 C-274.17285522 251.85973022 -274.17285522 251.85973022 -274.94921875 252.69921875 C-278.7753159 256.83655863 -282.59076783 260.98341656 -286.38671875 265.1484375 C-288.1034527 267.02170474 -289.83488951 268.88162311 -291.58203125 270.7265625 C-298.54122249 277.87202087 -298.54122249 277.87202087 -301.08203125 287.21875 C-300.76117236 292.42186709 -299.51465337 296.01039348 -296 300 C-291.2440081 303.31813389 -286.62875094 303.86747825 -281 303 C-273.68552902 299.84721078 -268.88135819 294.20662107 -263.75390625 288.26953125 C-260.08224824 284.06074662 -256.28024327 279.9898128 -252.4375 275.9375 C-251.02448973 274.44164222 -249.61173415 272.94554383 -248.19921875 271.44921875 C-247.49587402 270.70462402 -246.7925293 269.9600293 -246.06787109 269.19287109 C-242.95158413 265.88820882 -239.84879149 262.57106401 -236.75 259.25 C-236.17491699 258.63366699 -235.59983398 258.01733398 -235.00732422 257.38232422 C-230.86322023 252.93605827 -226.73911628 248.47166804 -222.6237793 243.9987793 C-219.79703465 240.93126053 -216.95300285 237.88101081 -214.09375 234.84375 C-213.09009399 233.7772522 -213.09009399 233.7772522 -212.06616211 232.68920898 C-210.76643369 231.30966296 -209.46525031 229.93148572 -208.16235352 228.55493164 C-205.42899001 225.65388164 -202.75750726 222.74872256 -200.24609375 219.65234375 C-198.01456505 217.01719943 -196.37725418 215.26822928 -192.9140625 214.59375 C-187.0548551 214.35378246 -187.0548551 214.35378246 -184.265625 216.0625 C-181.51572093 218.90509747 -181.00040161 220.87081467 -180.98828125 224.76953125 C-181.79545676 229.90642451 -184.69870341 232.66112631 -188.3125 236.1875 C-189.59819204 237.50077777 -190.88333918 238.81458918 -192.16796875 240.12890625 C-192.81427246 240.77875488 -193.46057617 241.42860352 -194.12646484 242.09814453 C-196.86341542 244.87646679 -199.49484206 247.74602551 -202.125 250.625 C-203.10893701 251.69311197 -204.09331077 252.76082178 -205.078125 253.828125 C-206.05213878 254.88536559 -207.02609726 255.94265713 -208 257 C-214.33229489 263.87482083 -220.67923353 270.73493875 -227.0625 277.5625 C-232.16113229 283.01678621 -237.23024913 288.4957483 -242.2578125 294.015625 C-244.22949562 296.17364301 -246.22884185 298.30268897 -248.2421875 300.421875 C-248.78536621 300.9979248 -249.32854492 301.57397461 -249.88818359 302.16748047 C-250.92970879 303.27084721 -251.9765685 304.36921355 -253.02978516 305.46142578 C-256.94739506 309.62895447 -260.44938907 314.04887425 -260.375 320 C-260.20238871 323.93253541 -259.18921515 326.67843219 -257 330 C-253.05208229 333.56275501 -250.53518777 335.16035065 -245.25 335.3125 C-244.40953125 335.34988281 -243.5690625 335.38726562 -242.703125 335.42578125 C-235.47554345 334.28733271 -230.75852035 327.85919906 -226.0625 322.75 C-225.38509766 322.02425781 -224.70769531 321.29851562 -224.00976562 320.55078125 C-220.16184199 316.41140414 -216.41179905 312.19827863 -212.70385742 307.93359375 C-209.91289311 304.76631515 -207.01908522 301.69780768 -204.125 298.625 C-199.42704543 293.61471604 -194.77769653 288.56932791 -190.19921875 283.44921875 C-187.23535897 280.14843707 -184.23843627 276.87839018 -181.23461914 273.61401367 C-178.84341705 271.01495355 -176.46258332 268.40778629 -174.1015625 265.78125 C-161.23844134 251.50250724 -161.23844134 251.50250724 -155.9375 250.3125 C-151.75859269 251.29054214 -149.82237272 252.77443117 -147 256 C-146.05202988 260.3752467 -146.07274104 262.42474429 -148.3359375 266.26953125 C-151.61852406 270.62898444 -155.36474508 274.49294523 -159.27734375 278.28515625 C-160.96231475 279.96248566 -162.51460554 281.69606285 -164.0625 283.5 C-167.59833836 287.60510032 -171.29327639 291.5500302 -175 295.5 C-180.33334261 301.17446706 -180.33334261 301.17446706 -185.5 307 C-188.84965859 310.89376557 -192.36385439 314.62753614 -195.875 318.375 C-209.92120878 331.4547697 -209.92120878 331.4547697 -217.3125 348.1875 C-216.88122497 353.44905539 -215.44857817 357.73538237 -211.4921875 361.39453125 C-207.62228059 363.94146998 -203.97523952 364.46305613 -199.40625 364.53125 C-190.97079775 362.66887743 -185.34990287 355.74462954 -179.53833008 349.84716797 C-178.50012858 348.80484087 -177.46124571 347.76319207 -176.42173767 346.72216797 C-174.19388935 344.48824846 -171.97081895 342.24971955 -169.75138283 340.00744247 C-166.24165823 336.46180693 -162.72094955 332.92721502 -159.19865417 329.39407349 C-152.36282761 322.53416516 -145.53837632 315.66300337 -138.71494293 308.79077148 C-130.01982268 300.03473305 -121.31901721 291.28436355 -112.60915488 282.5429889 C-109.10883234 279.02927929 -105.61382468 275.51039172 -102.12290728 271.98733878 C-99.95267211 269.79900718 -97.77834489 267.61477626 -95.60293007 265.43159485 C-94.59497133 264.41829255 -93.58875221 263.4032564 -92.58440781 262.38637161 C-91.21360597 260.99890285 -89.83601241 259.61815401 -88.45808411 258.23776245 C-87.68918256 257.46312086 -86.92028101 256.68847927 -86.12807941 255.89036369 C-83.57438841 253.62193107 -81.44367819 252.10996767 -78 251.84765625 C-74.26793908 252.24856123 -72.43181631 252.63295614 -69.5 255.125 C-67.51921441 258.92150572 -67.20965551 260.76087958 -68 265 C-72.78217639 271.72988006 -79.30851308 277.46262232 -85.12280273 283.28393555 C-86.12580872 284.2915811 -87.12862098 285.29941951 -88.1312561 286.30743408 C-90.83333588 289.02252121 -93.53864452 291.73436717 -96.24500155 294.44519019 C-97.93957225 296.14270764 -99.63356096 297.84080382 -101.32737923 299.53907204 C-106.63881736 304.86414779 -111.95222671 310.18724475 -117.26854938 315.50744408 C-123.38506504 321.62844619 -129.49497281 327.75594481 -135.59925312 333.88914841 C-140.33471455 338.6462607 -145.07595853 343.39755916 -149.82159001 348.14452583 C-152.64900832 350.97298874 -155.47397854 353.80379452 -158.29293633 356.64069176 C-160.94330569 359.30760323 -163.60082204 361.96718397 -166.26384354 364.62145996 C-167.69622086 366.05270688 -169.12119745 367.49134863 -170.54588318 368.93025208 C-179.55500026 377.88153528 -188.350255 383.72054156 -201.375 384.4375 C-210.71994556 384.05162254 -220.42432223 380.77756262 -227 374 C-232.06005799 367.83556427 -236 362.18741337 -236 354 C-236.55558594 354.15855469 -237.11117187 354.31710937 -237.68359375 354.48046875 C-247.15624033 356.60502523 -255.98666839 354.51644651 -264.2578125 349.6796875 C-272.79194677 343.74148761 -277.27221538 335.93234516 -280 326 C-280 325.01 -280 324.02 -280 323 C-280.65484375 323.04640625 -281.3096875 323.0928125 -281.984375 323.140625 C-292.21111988 323.54507254 -300.56835629 321.50999141 -308.4375 314.75 C-314.51362413 308.81041799 -319.75997815 301.96743978 -320.11328125 293.18359375 C-320.12374681 290.45208138 -320.08743677 287.72997014 -320 285 C-321.27875 285.0825 -322.5575 285.165 -323.875 285.25 C-332.69644171 285.22230317 -340.71767522 281.04771514 -347 275 C-354.29203054 266.8001263 -357.48622066 257.84941323 -356.9375 246.875 C-355.59657473 236.14759787 -351.04623372 229.03817925 -344 221 C-347.82763865 216.40442901 -351.80589206 212.09207395 -356.10546875 207.9375 C-357.26673837 206.79864832 -358.42752985 205.65930893 -359.58789062 204.51953125 C-361.37521136 202.76889469 -363.16525597 201.02150124 -364.96411133 199.28271484 C-391.91983722 173.18112777 -408.38412924 140.04662618 -409.16430664 102.12207031 C-409.51251332 69.3246666 -399.03522206 36.68405537 -377 12 C-376.28070313 11.16082031 -375.56140625 10.32164063 -374.8203125 9.45703125 C-352.51144738 -16.1465595 -320.28873299 -34.33892426 -286 -37 C-270.49567782 -37.65005766 -255.13754096 -37.65376408 -240 -34 C-239.30970703 -33.83902832 -238.61941406 -33.67805664 -237.90820312 -33.51220703 C-220.49494438 -29.31997707 -203.57609051 -21.45898671 -189.671875 -10.09765625 C-188.97578125 -9.52917969 -188.2796875 -8.96070312 -187.5625 -8.375 C-186.98628906 -7.86710937 -186.41007813 -7.35921875 -185.81640625 -6.8359375 C-183.95157154 -5.74831727 -183.95157154 -5.74831727 -181.6171875 -6.59375 C-178.65806434 -8.18372662 -176.19106942 -10.0323525 -173.5625 -12.125 C-155.71728005 -25.80808564 -135.08979331 -33.42318293 -113 -37 C-111.62714844 -37.22623047 -111.62714844 -37.22623047 -110.2265625 -37.45703125 C-68.86612521 -42.75060258 -30.25019143 -27.56456468 0 0 Z M-356 17 C-356.9384375 17.92554688 -357.876875 18.85109375 -358.84375 19.8046875 C-380.28984548 41.68868755 -390.26023127 71.38286963 -390.2487793 101.59545898 C-390.05772926 119.81668483 -385.62426075 136.40921915 -377.3125 152.625 C-376.93923584 153.36411621 -376.56597168 154.10323242 -376.18139648 154.86474609 C-368.58182844 169.11218673 -357.27378846 180.12184284 -345.875 191.3125 C-344.4263779 192.74603228 -342.97845648 194.18027298 -341.53125 195.61523438 C-338.02883544 199.08502061 -334.51715582 202.54515977 -331 206 C-327.07971479 204.20300808 -324.63265746 201.6947174 -321.8125 198.5 C-321.33055176 197.96391113 -320.84860352 197.42782227 -320.35205078 196.87548828 C-319.36608293 195.77769288 -318.38267213 194.67759543 -317.40185547 193.57519531 C-315.40472599 191.33112019 -313.38851299 189.10437291 -311.375 186.875 C-309.91607895 185.25052763 -308.45773745 183.62553457 -307 182 C-301.73054855 176.12399299 -296.42994352 170.27854557 -291.09082031 164.46582031 C-286.69316338 159.67425149 -282.34208322 154.84189136 -278 150 C-272.73054855 144.12399299 -267.42994352 138.27854557 -262.09082031 132.46582031 C-257.69316338 127.67425149 -253.34208322 122.84189136 -249 118 C-243.72916984 112.12245558 -238.42768328 106.27500173 -233.08642578 100.46142578 C-229.47144208 96.52342783 -225.89349092 92.55360478 -222.32421875 88.57421875 C-220.62646091 86.69384495 -218.92194443 84.82162659 -217.20703125 82.95703125 C-216.72983643 82.43794189 -216.2526416 81.91885254 -215.76098633 81.3840332 C-214.80353319 80.34524577 -213.84377051 79.30858181 -212.8815918 78.27416992 C-210.36293397 75.55255964 -208.04351027 72.77101362 -205.8125 69.8125 C-203.09180121 67.09180121 -202.47284419 66.51241336 -198.9375 65.875 C-192.42770289 66.08166023 -188.62752323 70.0015713 -183.875 74.125 C-182.71678972 75.11793905 -181.55792573 76.11011605 -180.3984375 77.1015625 C-179.82448242 77.59301758 -179.25052734 78.08447266 -178.65917969 78.59082031 C-175.42591183 81.33690949 -172.12237748 83.99664654 -168.82421875 86.6640625 C-166.75002137 88.37965037 -164.72123793 90.11517759 -162.70703125 91.8984375 C-155.98336328 97.82203735 -150.73066265 102.38600043 -141.5 103.375 C-134.9829705 102.67674684 -130.66942275 101.11498369 -126.125 96.25 C-122.18975296 91.31746433 -120.72771554 86.86940725 -121.0625 80.5625 C-122.46543265 71.45114621 -128.10300058 66.75026862 -135.10546875 61.28515625 C-137.84735337 59.1205105 -140.42618328 56.86035824 -143 54.5 C-146.31989486 51.47717579 -149.69764112 48.57487839 -153.1875 45.75 C-158.95918726 41.07574623 -164.55658735 36.21701507 -170.15625 31.33984375 C-174.43816896 27.61158385 -178.75653947 23.92659326 -183.07910156 20.24560547 C-186.47890674 17.33963214 -189.7878317 14.3600542 -193.0625 11.3125 C-240.48374043 -31.40517024 -311.46500392 -27.1438103 -356 17 Z " fill="#4BAF4F" transform="translate(439,113)"/>
<path d="M0 0 C3.19319107 2.24386399 3.90367244 3.64679896 4.9375 7.4375 C5.00754154 11.42986787 4.46465254 12.91918433 2 16 C-1.7373856 18.4915904 -3.57331583 18.45793285 -8 18 C-10.94855414 16.46162393 -12.54706386 15.3392371 -13.6328125 12.12890625 C-14.25536424 8.62539697 -14.18493244 6.47260513 -12.875 3.125 C-9.08626417 -1.1689006 -5.3844831 -1.60388858 0 0 Z " fill="#4BAF4F" transform="translate(394,338)"/>
</svg>
